PSF_ID_stride1.mot
nRows=7
nColumns=38

name PSF_ID_stride1.mot
datacolumns 38
datarows 7
range 0.3280721000 0.3662663000
endheader
time	pelvis_tilt_moment	pelvis_list_moment	pelvis_rotation_moment	pelvis_tx_force	pelvis_ty_force	pelvis_tz_force	hip_flexion_r_moment	hip_adduction_r_moment	hip_rotation_r_moment	knee_angle_r_moment	ankle_angle_r_moment	subtalar_angle_r_moment	mtp_angle_r_moment	hip_flexion_l_moment	hip_adduction_l_moment	hip_rotation_l_moment	knee_angle_l_moment	ankle_angle_l_moment	subtalar_angle_l_moment	mtp_angle_l_moment	lumbar_extension_moment	lumbar_bending_moment	lumbar_rotation_moment	arm_flex_r_moment	arm_add_r_moment	arm_rot_r_moment	elbow_flex_r_moment	pro_sup_r_moment	wrist_flex_r_moment	wrist_dev_r_moment	arm_flex_l_moment	arm_add_l_moment	arm_rot_l_moment	elbow_flex_l_moment	pro_sup_l_moment	wrist_flex_l_moment	wrist_dev_l_moment
        0.3280721000	       -2.3118088736	      -98.7444714878	       -4.0721114333	       -2.6271044114	      137.6559076096	      208.9085748458	       76.7314782183	        5.7218400258	        0.7080535129	       21.6066510835	        4.5315711526	       -0.7241540776	        0.2109155136	     -164.6089025233	       30.2374799344	       -1.6363362033	      -97.2066806540	       -4.5580656968	        1.6904333364	       -0.0579907105	        0.2930768075	        9.2466844562	      -13.0946165011	       -5.4772397925	       -1.2327258643	       -0.7863983032	       -1.2659552230	       -0.0103420316	       -0.1193140718	        0.1135316460	       -2.8559087065	        1.2078207911	        1.6760787505	       -0.9168695771	        0.0719085671	        0.1657682431	        0.1518831387	
        0.3341489000	      -16.6248449269	       14.5223596481	        8.8641012148	        9.0051843118	      282.4647075868	      172.9353536980	       74.2198077573	        5.4058057419	       -0.0129273116	       22.3044143506	        4.6096538146	       -0.6496219540	        0.2186553331	      -65.2297169005	        6.0844608104	       -5.0943591996	      -33.2685062519	       15.1982112704	       -7.5292021253	        0.0693619834	       17.3424437975	       13.6354492964	       -6.3292247248	       -6.4941371756	       -0.3111703967	        0.1991759163	       -0.5909432659	        0.0058154962	       -0.0020304071	        0.0915336127	       -5.4302935451	        0.6093671756	        1.2630075091	       -0.3667706132	        0.0445697762	        0.1297417838	        0.1046527035	
        0.3401015000	      -34.4430206235	       67.2026169991	       22.9859319718	       19.7091206879	      373.2093493365	      129.7151437497	       75.3191817140	        6.0938316741	       -0.8184535091	       22.2170090401	        4.7073542094	       -0.5727964960	        0.2277082325	      -33.8354094543	      -18.8089678497	       -5.6238764707	       -3.3631539133	       23.8547041773	       -7.9377215879	        0.2021776576	       36.7877732658	       20.7509057986	        0.1554413284	       -6.5912131599	        0.3245697341	        0.9229782133	        0.5860825110	        0.0066194490	        0.1033260271	        0.0146092135	       -7.0549746431	        0.5222667032	        0.9952049218	        0.6505603435	        0.0115276426	        0.1137081310	        0.0115819993	
        0.3461465000	      -46.8092401606	       83.1421468244	       39.9935490151	       20.1291426562	      350.0657538553	       50.1019819695	       80.2542869998	        7.6838826129	       -1.4596546934	       22.1084147551	        4.8073214080	       -0.5126404987	        0.2361344070	      -42.5521810834	      -43.2194424627	       -9.9757025858	       10.4267899246	       20.6523373053	       -5.8701317282	        0.3184976848	       50.1838789824	       26.5508985180	        5.7877311677	       -5.5967170432	        0.7375039772	        1.3623518089	        1.8701184782	       -0.0018936815	        0.1831003139	       -0.0842889545	       -7.3596314154	        0.6860201520	        0.7524481497	        1.7749486972	       -0.0223567915	        0.1010879507	       -0.0971600545	
        0.3541607000	      -39.7134464418	       48.6709332887	       61.6022875199	       -0.8317107377	      121.1021704008	      -70.0530397111	       88.5818617221	       10.2912512727	       -1.6909935769	       23.0328791074	        4.8634459579	       -0.4765226444	        0.2409333042	     -100.4547807214	      -63.2576379312	      -24.5762580099	       10.8554683393	       -2.9125840668	       -4.0930200484	        0.4057622460	       49.2688772608	       26.1139128970	       10.6073139608	       -3.0359776783	        1.1251712981	        1.5637051597	        3.0268645669	       -0.0143016993	        0.2337325490	       -0.1848690998	       -5.8148885269	        0.7626510786	        0.3256444716	        2.7773258950	       -0.0578952311	        0.0686490764	       -0.2058628272	
        0.3600755000	      -16.8568063816	       -3.4992696415	       71.9179641984	      -24.4977563259	     -113.1092680282	     -123.8287595408	       91.9692601535	       11.9906204420	       -1.4639919625	       24.6346214290	        4.8123957835	       -0.4723633377	        0.2387076190	     -156.0628472699	      -64.3771020359	      -38.9986226383	        6.8454139384	      -27.9743512701	       -5.5729294235	        0.4091839533	       38.0055560933	       19.9332273961	       11.5609708973	       -0.9294965153	        1.3880468299	        1.5149907904	        3.3698233442	       -0.0209913229	        0.2341580531	       -0.2228793153	       -3.8186700969	        0.5829501176	       -0.0244659992	        3.0719203199	       -0.0737783555	        0.0385704312	       -0.2474973564	
        0.3662663000	       12.4211916113	      -55.2611639665	       74.2553881659	      -45.5785724855	     -310.0098998980	     -131.1650511630	       91.0505501768	       13.4174060785	       -1.2384325294	       26.5964610413	        4.6853794816	       -0.4633412949	        0.2337644600	     -201.0547089035	      -56.3991353081	      -51.2148611733	        9.7906718017	      -52.2121115773	       -8.7775453973	        0.3640984212	       26.5561980713	       12.6554135105	        9.7928779154	        0.8659976069	        1.5776029172	        1.2953479219	        3.5742826122	       -0.0319380349	        0.2095883219	       -0.2550163446	       -1.5230261982	        0.4200452697	       -0.2313121192	        3.2978815468	       -0.0819502457	        0.0269201346	       -0.2786444492	
